<mxfile host="app.diagrams.net" agent="Mozilla/5.0 (Windows NT 10.0; Win64; x64) AppleWebKit/537.36 (KHTML, like Gecko) Chrome/140.0.0.0 Safari/537.36" version="28.2.5">
  <diagram name="Page-1" id="6woV67Nvl-v79f2rpqvP">
    <mxGraphModel dx="1429" dy="809" grid="1" gridSize="10" guides="1" tooltips="1" connect="1" arrows="1" fold="1" page="1" pageScale="1" pageWidth="850" pageHeight="1100" math="0" shadow="0">
      <root>
        <mxCell id="0" />
        <mxCell id="1" parent="0" />
        <mxCell id="5tzD10YLgb73ClGAMn7X-1" value="" style="rounded=1;whiteSpace=wrap;html=1;fillColor=none;strokeColor=#5C5C5C;strokeWidth=1;arcSize=5;" vertex="1" parent="1">
          <mxGeometry x="495" y="10" width="760" height="80" as="geometry" />
        </mxCell>
        <mxCell id="5tzD10YLgb73ClGAMn7X-2" value="&lt;div style=&quot;text-align: left;&quot;&gt;&lt;span style=&quot;background-color: initial; font-size: 38px;&quot;&gt;&lt;b&gt;ETL Methods&lt;/b&gt;&lt;/span&gt;&lt;/div&gt;" style="text;html=1;strokeColor=none;fillColor=none;align=center;verticalAlign=middle;whiteSpace=wrap;rounded=0;" vertex="1" parent="1">
          <mxGeometry x="590" y="25" width="570" height="50" as="geometry" />
        </mxCell>
        <mxCell id="5tzD10YLgb73ClGAMn7X-4" value="&lt;b style=&quot;&quot;&gt;&lt;font style=&quot;font-size: 48px;&quot;&gt;ETL&lt;/font&gt;&lt;/b&gt;" style="ellipse;whiteSpace=wrap;html=1;aspect=fixed;fillColor=#dae8fc;strokeColor=#6c8ebf;shadow=1;" vertex="1" parent="1">
          <mxGeometry x="770" y="440" width="160" height="160" as="geometry" />
        </mxCell>
        <mxCell id="5tzD10YLgb73ClGAMn7X-6" value="&lt;font style=&quot;font-size: 16px;&quot; face=&quot;Times New Roman&quot;&gt;&lt;b&gt;LOAD&lt;/b&gt;&lt;/font&gt;" style="ellipse;whiteSpace=wrap;html=1;aspect=fixed;fillColor=#f8cecc;shadow=1;strokeColor=#b85450;" vertex="1" parent="1">
          <mxGeometry x="1010" y="300" width="125" height="125" as="geometry" />
        </mxCell>
        <mxCell id="5tzD10YLgb73ClGAMn7X-7" value="&lt;font face=&quot;Times New Roman&quot; style=&quot;font-size: 16px;&quot;&gt;&lt;b style=&quot;&quot;&gt;EXTRACTION&lt;/b&gt;&lt;/font&gt;" style="ellipse;whiteSpace=wrap;html=1;aspect=fixed;fillColor=#f8cecc;shadow=1;strokeColor=#b85450;" vertex="1" parent="1">
          <mxGeometry x="580" y="300" width="125" height="125" as="geometry" />
        </mxCell>
        <mxCell id="5tzD10YLgb73ClGAMn7X-9" value="" style="endArrow=classic;html=1;rounded=0;entryX=0;entryY=1;entryDx=0;entryDy=0;exitX=0.982;exitY=0.296;exitDx=0;exitDy=0;exitPerimeter=0;" edge="1" parent="1" source="5tzD10YLgb73ClGAMn7X-4" target="5tzD10YLgb73ClGAMn7X-6">
          <mxGeometry width="50" height="50" relative="1" as="geometry">
            <mxPoint x="930" y="570" as="sourcePoint" />
            <mxPoint x="1064" y="425" as="targetPoint" />
          </mxGeometry>
        </mxCell>
        <mxCell id="5tzD10YLgb73ClGAMn7X-10" value="" style="endArrow=classic;html=1;rounded=0;entryX=0.725;entryY=0.96;entryDx=0;entryDy=0;entryPerimeter=0;exitX=0;exitY=0.313;exitDx=0;exitDy=0;exitPerimeter=0;" edge="1" parent="1" source="5tzD10YLgb73ClGAMn7X-4" target="5tzD10YLgb73ClGAMn7X-7">
          <mxGeometry width="50" height="50" relative="1" as="geometry">
            <mxPoint x="790" y="570" as="sourcePoint" />
            <mxPoint x="844" y="480" as="targetPoint" />
            <Array as="points" />
          </mxGeometry>
        </mxCell>
        <mxCell id="5tzD10YLgb73ClGAMn7X-11" value="&lt;font style=&quot;font-size: 16px;&quot;&gt;&lt;b&gt;TRANSFORMATION&lt;/b&gt;&lt;/font&gt;" style="ellipse;whiteSpace=wrap;html=1;aspect=fixed;fillColor=#f8cecc;strokeColor=#b85450;shadow=1;" vertex="1" parent="1">
          <mxGeometry x="770" y="710" width="160" height="160" as="geometry" />
        </mxCell>
        <mxCell id="5tzD10YLgb73ClGAMn7X-13" value="&lt;b&gt;&lt;font style=&quot;font-size: 10px;&quot;&gt;Data&lt;/font&gt;&lt;/b&gt;&lt;div&gt;&lt;b&gt;&lt;font style=&quot;font-size: 10px;&quot;&gt;Enrichments&lt;/font&gt;&lt;/b&gt;&lt;/div&gt;" style="rounded=1;whiteSpace=wrap;html=1;fillColor=none;" vertex="1" parent="1">
          <mxGeometry x="590" y="740" width="80" height="30" as="geometry" />
        </mxCell>
        <mxCell id="5tzD10YLgb73ClGAMn7X-14" value="&lt;font size=&quot;1&quot;&gt;&lt;b&gt;Data Normalization&lt;/b&gt;&lt;/font&gt;&lt;div&gt;&lt;b&gt;&lt;font size=&quot;1&quot;&gt;&amp;amp;&amp;nbsp;&lt;/font&gt;&lt;span style=&quot;font-size: x-small; background-color: transparent; color: light-dark(rgb(0, 0, 0), rgb(255, 255, 255));&quot;&gt;Standardization&amp;nbsp;&lt;/span&gt;&lt;/b&gt;&lt;/div&gt;" style="rounded=1;whiteSpace=wrap;html=1;fillColor=none;" vertex="1" parent="1">
          <mxGeometry x="1020" y="740" width="100" height="30" as="geometry" />
        </mxCell>
        <mxCell id="5tzD10YLgb73ClGAMn7X-15" value="&lt;span style=&quot;font-weight: 700;&quot;&gt;&lt;font face=&quot;Helvetica&quot; style=&quot;font-size: 10px;&quot;&gt;Business Rules &amp;amp; Logic&lt;/font&gt;&lt;/span&gt;" style="rounded=1;whiteSpace=wrap;html=1;fillColor=none;" vertex="1" parent="1">
          <mxGeometry x="1020" y="800" width="80" height="30" as="geometry" />
        </mxCell>
        <mxCell id="5tzD10YLgb73ClGAMn7X-16" value="&lt;b&gt;&lt;font style=&quot;font-size: 10px;&quot;&gt;Data&lt;/font&gt;&lt;/b&gt;&lt;div&gt;&lt;b&gt;&lt;font style=&quot;font-size: 10px;&quot;&gt;Integration&lt;/font&gt;&lt;/b&gt;&lt;/div&gt;" style="rounded=1;whiteSpace=wrap;html=1;fillColor=none;" vertex="1" parent="1">
          <mxGeometry x="590" y="800" width="80" height="30" as="geometry" />
        </mxCell>
        <mxCell id="5tzD10YLgb73ClGAMn7X-17" value="&lt;b&gt;&lt;font style=&quot;font-size: 10px;&quot;&gt;Derived&lt;/font&gt;&lt;/b&gt;&lt;div&gt;&lt;b&gt;&lt;font style=&quot;font-size: 10px;&quot;&gt;Columns&lt;/font&gt;&lt;/b&gt;&lt;/div&gt;" style="rounded=1;whiteSpace=wrap;html=1;fillColor=none;" vertex="1" parent="1">
          <mxGeometry x="590" y="860" width="80" height="30" as="geometry" />
        </mxCell>
        <mxCell id="5tzD10YLgb73ClGAMn7X-18" value="&lt;font style=&quot;font-size: 10px;&quot;&gt;&lt;b&gt;Data&amp;nbsp;&lt;/b&gt;&lt;/font&gt;&lt;div&gt;&lt;font style=&quot;font-size: 10px;&quot;&gt;&lt;b&gt;Cleansing&lt;/b&gt;&lt;/font&gt;&lt;/div&gt;" style="rounded=1;whiteSpace=wrap;html=1;fillColor=none;" vertex="1" parent="1">
          <mxGeometry x="810" y="930" width="80" height="30" as="geometry" />
        </mxCell>
        <mxCell id="5tzD10YLgb73ClGAMn7X-19" value="&lt;font style=&quot;font-size: 10px;&quot;&gt;&lt;b&gt;Data&lt;/b&gt;&lt;/font&gt;&lt;div&gt;&lt;font style=&quot;font-size: 10px;&quot;&gt;&lt;b&gt;Aggregation&lt;/b&gt;&lt;/font&gt;&lt;/div&gt;" style="rounded=1;whiteSpace=wrap;html=1;fillColor=none;" vertex="1" parent="1">
          <mxGeometry x="1000" y="860" width="80" height="30" as="geometry" />
        </mxCell>
        <mxCell id="5tzD10YLgb73ClGAMn7X-20" value="" style="endArrow=classic;html=1;rounded=0;exitX=0.5;exitY=1;exitDx=0;exitDy=0;" edge="1" parent="1" source="5tzD10YLgb73ClGAMn7X-4">
          <mxGeometry width="50" height="50" relative="1" as="geometry">
            <mxPoint x="640" y="660" as="sourcePoint" />
            <mxPoint x="850" y="710" as="targetPoint" />
          </mxGeometry>
        </mxCell>
        <mxCell id="5tzD10YLgb73ClGAMn7X-22" value="&lt;font style=&quot;font-size: 10px;&quot;&gt;&lt;b&gt;Remove&lt;/b&gt;&lt;/font&gt;&lt;div&gt;&lt;font style=&quot;font-size: 10px;&quot;&gt;&lt;b&gt;Duplicates&lt;/b&gt;&lt;/font&gt;&lt;/div&gt;" style="rounded=1;whiteSpace=wrap;html=1;fillColor=none;" vertex="1" parent="1">
          <mxGeometry x="660" y="920" width="80" height="30" as="geometry" />
        </mxCell>
        <mxCell id="5tzD10YLgb73ClGAMn7X-23" value="&lt;font style=&quot;font-size: 10px;&quot;&gt;&lt;b&gt;Data Type Casting&lt;/b&gt;&lt;/font&gt;" style="rounded=1;whiteSpace=wrap;html=1;fillColor=none;" vertex="1" parent="1">
          <mxGeometry x="980" y="920" width="80" height="30" as="geometry" />
        </mxCell>
        <mxCell id="5tzD10YLgb73ClGAMn7X-24" value="&lt;font style=&quot;font-size: 10px;&quot;&gt;&lt;b&gt;Handling&lt;/b&gt;&lt;/font&gt;&lt;div&gt;&lt;font style=&quot;font-size: 10px;&quot;&gt;&lt;b&gt;Unwanted Space&lt;/b&gt;&lt;/font&gt;&lt;/div&gt;" style="rounded=1;whiteSpace=wrap;html=1;arcSize=0;fillColor=none;" vertex="1" parent="1">
          <mxGeometry x="920" y="980" width="90" height="30" as="geometry" />
        </mxCell>
        <mxCell id="5tzD10YLgb73ClGAMn7X-25" value="&lt;font style=&quot;font-size: 10px;&quot;&gt;&lt;b&gt;Handling Invalid Value&lt;/b&gt;&lt;/font&gt;" style="rounded=1;whiteSpace=wrap;html=1;fillColor=none;" vertex="1" parent="1">
          <mxGeometry x="860" y="1020" width="90" height="30" as="geometry" />
        </mxCell>
        <mxCell id="5tzD10YLgb73ClGAMn7X-26" value="&lt;font style=&quot;font-size: 10px;&quot;&gt;&lt;b&gt;Handling Missing Data&lt;/b&gt;&lt;/font&gt;" style="rounded=1;whiteSpace=wrap;html=1;fillColor=none;" vertex="1" parent="1">
          <mxGeometry x="760" y="1020" width="80" height="30" as="geometry" />
        </mxCell>
        <mxCell id="5tzD10YLgb73ClGAMn7X-27" value="&lt;font style=&quot;font-size: 10px;&quot;&gt;&lt;b&gt;Data&amp;nbsp;&lt;/b&gt;&lt;/font&gt;&lt;b style=&quot;font-size: 10px; background-color: transparent; color: light-dark(rgb(0, 0, 0), rgb(255, 255, 255));&quot;&gt;Filtering&lt;/b&gt;" style="rounded=1;whiteSpace=wrap;html=1;fillColor=none;" vertex="1" parent="1">
          <mxGeometry x="690" y="980" width="80" height="30" as="geometry" />
        </mxCell>
        <mxCell id="5tzD10YLgb73ClGAMn7X-32" value="&lt;font style=&quot;font-size: 17px;&quot;&gt;&lt;b style=&quot;&quot;&gt;Extract&lt;/b&gt;&lt;/font&gt;&lt;div&gt;&lt;font style=&quot;font-size: 17px;&quot;&gt;&lt;b style=&quot;&quot;&gt;Types&lt;/b&gt;&lt;/font&gt;&lt;/div&gt;" style="rounded=1;whiteSpace=wrap;html=1;fillColor=none;" vertex="1" parent="1">
          <mxGeometry x="370" y="290" width="120" height="60" as="geometry" />
        </mxCell>
        <mxCell id="5tzD10YLgb73ClGAMn7X-33" value="&lt;font style=&quot;font-size: 17px;&quot;&gt;&lt;b style=&quot;&quot;&gt;Extract Techniques&lt;/b&gt;&lt;/font&gt;" style="rounded=1;whiteSpace=wrap;html=1;fillColor=none;" vertex="1" parent="1">
          <mxGeometry x="365" y="425" width="120" height="60" as="geometry" />
        </mxCell>
        <mxCell id="5tzD10YLgb73ClGAMn7X-34" value="&lt;font style=&quot;font-size: 10px;&quot;&gt;&lt;b&gt;File Parsing&lt;/b&gt;&lt;/font&gt;" style="rounded=1;whiteSpace=wrap;html=1;arcSize=33;fillColor=none;" vertex="1" parent="1">
          <mxGeometry x="510" y="550" width="80" height="30" as="geometry" />
        </mxCell>
        <mxCell id="5tzD10YLgb73ClGAMn7X-35" value="&lt;font style=&quot;font-size: 10px;&quot;&gt;&lt;b&gt;Event Based&lt;/b&gt;&lt;/font&gt;&lt;div&gt;&lt;font style=&quot;font-size: 10px;&quot;&gt;&lt;b&gt;Streaming&lt;/b&gt;&lt;/font&gt;&lt;/div&gt;" style="rounded=1;whiteSpace=wrap;html=1;direction=west;fillColor=none;" vertex="1" parent="1">
          <mxGeometry x="330" y="590" width="80" height="30" as="geometry" />
        </mxCell>
        <mxCell id="5tzD10YLgb73ClGAMn7X-36" value="&lt;font style=&quot;font-size: 10px;&quot;&gt;&lt;b&gt;API&amp;nbsp; Cslls&lt;/b&gt;&lt;/font&gt;" style="rounded=1;whiteSpace=wrap;html=1;fillColor=none;" vertex="1" parent="1">
          <mxGeometry x="220" y="570" width="80" height="30" as="geometry" />
        </mxCell>
        <mxCell id="5tzD10YLgb73ClGAMn7X-37" value="&lt;font style=&quot;font-size: 10px;&quot;&gt;&lt;b&gt;Database Querying&lt;/b&gt;&lt;/font&gt;" style="rounded=1;whiteSpace=wrap;html=1;fillColor=none;" vertex="1" parent="1">
          <mxGeometry x="180" y="485" width="80" height="30" as="geometry" />
        </mxCell>
        <mxCell id="5tzD10YLgb73ClGAMn7X-38" value="&lt;font style=&quot;font-size: 10px;&quot;&gt;&lt;b&gt;Manual&lt;/b&gt;&lt;/font&gt;&lt;div&gt;&lt;font style=&quot;font-size: 10px;&quot;&gt;&lt;b&gt;Data Extract&lt;/b&gt;&lt;/font&gt;&lt;/div&gt;" style="rounded=1;whiteSpace=wrap;html=1;fillColor=none;" vertex="1" parent="1">
          <mxGeometry x="200" y="430" width="80" height="30" as="geometry" />
        </mxCell>
        <mxCell id="5tzD10YLgb73ClGAMn7X-39" value="&lt;font style=&quot;font-size: 10px;&quot;&gt;&lt;b&gt;Web Scrapping&lt;/b&gt;&lt;/font&gt;" style="rounded=1;whiteSpace=wrap;html=1;fillColor=none;" vertex="1" parent="1">
          <mxGeometry x="540" y="480" width="80" height="30" as="geometry" />
        </mxCell>
        <mxCell id="5tzD10YLgb73ClGAMn7X-40" value="&lt;font style=&quot;font-size: 10px;&quot;&gt;&lt;b&gt;CDC&lt;/b&gt;&lt;/font&gt;" style="rounded=1;whiteSpace=wrap;html=1;arcSize=33;fillColor=none;" vertex="1" parent="1">
          <mxGeometry x="430" y="590" width="80" height="30" as="geometry" />
        </mxCell>
        <mxCell id="5tzD10YLgb73ClGAMn7X-43" value="&lt;font face=&quot;Verdana&quot; style=&quot;font-size: 17px;&quot;&gt;&lt;b style=&quot;&quot;&gt;Extraction&amp;nbsp;&lt;/b&gt;&lt;/font&gt;&lt;div&gt;&lt;font face=&quot;Verdana&quot; style=&quot;font-size: 17px;&quot;&gt;&lt;b style=&quot;&quot;&gt;Method&lt;/b&gt;&lt;/font&gt;&lt;/div&gt;" style="rounded=1;whiteSpace=wrap;html=1;fillColor=none;" vertex="1" parent="1">
          <mxGeometry x="530" y="170" width="120" height="60" as="geometry" />
        </mxCell>
        <mxCell id="5tzD10YLgb73ClGAMn7X-44" value="&lt;font style=&quot;font-size: 10px;&quot;&gt;&lt;b&gt;Push&lt;/b&gt;&lt;/font&gt;&lt;div&gt;&lt;font style=&quot;font-size: 10px;&quot;&gt;&lt;b&gt;Extraction&lt;/b&gt;&lt;/font&gt;&lt;/div&gt;" style="rounded=1;whiteSpace=wrap;html=1;fillColor=none;" vertex="1" parent="1">
          <mxGeometry x="450" y="120" width="80" height="30" as="geometry" />
        </mxCell>
        <mxCell id="5tzD10YLgb73ClGAMn7X-45" value="&lt;font style=&quot;font-size: 10px;&quot;&gt;&lt;b&gt;Push&amp;nbsp;&lt;/b&gt;&lt;/font&gt;&lt;div&gt;&lt;font style=&quot;font-size: 10px;&quot;&gt;&lt;b&gt;Extraction&lt;/b&gt;&lt;/font&gt;&lt;/div&gt;" style="rounded=1;whiteSpace=wrap;html=1;fillColor=none;" vertex="1" parent="1">
          <mxGeometry x="660" y="120" width="80" height="30" as="geometry" />
        </mxCell>
        <mxCell id="5tzD10YLgb73ClGAMn7X-47" value="&lt;font style=&quot;font-size: 10px;&quot;&gt;&lt;b&gt;Full&lt;/b&gt;&lt;/font&gt;&lt;div&gt;&lt;font style=&quot;font-size: 10px;&quot;&gt;&lt;b&gt;Extraction&lt;/b&gt;&lt;/font&gt;&lt;/div&gt;" style="rounded=1;whiteSpace=wrap;html=1;fillColor=none;" vertex="1" parent="1">
          <mxGeometry x="220" y="250" width="80" height="30" as="geometry" />
        </mxCell>
        <mxCell id="5tzD10YLgb73ClGAMn7X-48" value="&lt;font style=&quot;font-size: 10px;&quot;&gt;&lt;b&gt;Incremental Extraction&lt;/b&gt;&lt;/font&gt;" style="rounded=1;whiteSpace=wrap;html=1;fillColor=none;" vertex="1" parent="1">
          <mxGeometry x="210" y="320" width="80" height="40" as="geometry" />
        </mxCell>
        <mxCell id="5tzD10YLgb73ClGAMn7X-50" value="" style="endArrow=classic;html=1;rounded=0;exitX=1;exitY=0.5;exitDx=0;exitDy=0;entryX=0.5;entryY=0;entryDx=0;entryDy=0;" edge="1" parent="1" source="5tzD10YLgb73ClGAMn7X-33" target="5tzD10YLgb73ClGAMn7X-39">
          <mxGeometry width="50" height="50" relative="1" as="geometry">
            <mxPoint x="820" y="430" as="sourcePoint" />
            <mxPoint x="870" y="380" as="targetPoint" />
            <Array as="points">
              <mxPoint x="540" y="455" />
            </Array>
          </mxGeometry>
        </mxCell>
        <mxCell id="5tzD10YLgb73ClGAMn7X-51" value="" style="endArrow=classic;html=1;rounded=0;exitX=0;exitY=0.5;exitDx=0;exitDy=0;entryX=1;entryY=0.5;entryDx=0;entryDy=0;" edge="1" parent="1" source="5tzD10YLgb73ClGAMn7X-32" target="5tzD10YLgb73ClGAMn7X-48">
          <mxGeometry width="50" height="50" relative="1" as="geometry">
            <mxPoint x="820" y="430" as="sourcePoint" />
            <mxPoint x="870" y="380" as="targetPoint" />
          </mxGeometry>
        </mxCell>
        <mxCell id="5tzD10YLgb73ClGAMn7X-52" value="" style="endArrow=classic;html=1;rounded=0;exitX=0;exitY=0.5;exitDx=0;exitDy=0;entryX=1;entryY=0.5;entryDx=0;entryDy=0;" edge="1" parent="1" source="5tzD10YLgb73ClGAMn7X-32" target="5tzD10YLgb73ClGAMn7X-47">
          <mxGeometry width="50" height="50" relative="1" as="geometry">
            <mxPoint x="820" y="430" as="sourcePoint" />
            <mxPoint x="870" y="380" as="targetPoint" />
          </mxGeometry>
        </mxCell>
        <mxCell id="5tzD10YLgb73ClGAMn7X-54" value="" style="endArrow=classic;html=1;rounded=0;exitX=0;exitY=0.5;exitDx=0;exitDy=0;entryX=0.5;entryY=1;entryDx=0;entryDy=0;" edge="1" parent="1" source="5tzD10YLgb73ClGAMn7X-43" target="5tzD10YLgb73ClGAMn7X-44">
          <mxGeometry width="50" height="50" relative="1" as="geometry">
            <mxPoint x="820" y="430" as="sourcePoint" />
            <mxPoint x="870" y="380" as="targetPoint" />
          </mxGeometry>
        </mxCell>
        <mxCell id="5tzD10YLgb73ClGAMn7X-55" value="" style="endArrow=classic;html=1;rounded=0;exitX=1;exitY=0.5;exitDx=0;exitDy=0;entryX=0.5;entryY=1;entryDx=0;entryDy=0;" edge="1" parent="1" source="5tzD10YLgb73ClGAMn7X-43" target="5tzD10YLgb73ClGAMn7X-45">
          <mxGeometry width="50" height="50" relative="1" as="geometry">
            <mxPoint x="820" y="430" as="sourcePoint" />
            <mxPoint x="870" y="380" as="targetPoint" />
          </mxGeometry>
        </mxCell>
        <mxCell id="5tzD10YLgb73ClGAMn7X-56" value="" style="endArrow=classic;html=1;rounded=0;exitX=0.5;exitY=1;exitDx=0;exitDy=0;entryX=0.5;entryY=0;entryDx=0;entryDy=0;" edge="1" parent="1" source="5tzD10YLgb73ClGAMn7X-33" target="5tzD10YLgb73ClGAMn7X-36">
          <mxGeometry width="50" height="50" relative="1" as="geometry">
            <mxPoint x="820" y="430" as="sourcePoint" />
            <mxPoint x="870" y="380" as="targetPoint" />
          </mxGeometry>
        </mxCell>
        <mxCell id="5tzD10YLgb73ClGAMn7X-57" value="" style="endArrow=classic;html=1;rounded=0;exitX=0.5;exitY=1;exitDx=0;exitDy=0;entryX=0.5;entryY=0;entryDx=0;entryDy=0;" edge="1" parent="1" source="5tzD10YLgb73ClGAMn7X-33" target="5tzD10YLgb73ClGAMn7X-40">
          <mxGeometry width="50" height="50" relative="1" as="geometry">
            <mxPoint x="820" y="430" as="sourcePoint" />
            <mxPoint x="870" y="380" as="targetPoint" />
          </mxGeometry>
        </mxCell>
        <mxCell id="5tzD10YLgb73ClGAMn7X-58" value="" style="endArrow=classic;html=1;rounded=0;entryX=0.25;entryY=0;entryDx=0;entryDy=0;exitX=0.5;exitY=1;exitDx=0;exitDy=0;" edge="1" parent="1" source="5tzD10YLgb73ClGAMn7X-33" target="5tzD10YLgb73ClGAMn7X-34">
          <mxGeometry width="50" height="50" relative="1" as="geometry">
            <mxPoint x="430" y="490" as="sourcePoint" />
            <mxPoint x="870" y="380" as="targetPoint" />
          </mxGeometry>
        </mxCell>
        <mxCell id="5tzD10YLgb73ClGAMn7X-59" value="" style="endArrow=classic;html=1;rounded=0;entryX=0.5;entryY=1;entryDx=0;entryDy=0;exitX=0.5;exitY=1;exitDx=0;exitDy=0;" edge="1" parent="1" source="5tzD10YLgb73ClGAMn7X-33" target="5tzD10YLgb73ClGAMn7X-35">
          <mxGeometry width="50" height="50" relative="1" as="geometry">
            <mxPoint x="420" y="490" as="sourcePoint" />
            <mxPoint x="360" y="665" as="targetPoint" />
          </mxGeometry>
        </mxCell>
        <mxCell id="5tzD10YLgb73ClGAMn7X-60" value="" style="endArrow=classic;html=1;rounded=0;exitX=0;exitY=0.5;exitDx=0;exitDy=0;entryX=1;entryY=0.5;entryDx=0;entryDy=0;exitPerimeter=0;" edge="1" parent="1" source="5tzD10YLgb73ClGAMn7X-33" target="5tzD10YLgb73ClGAMn7X-38">
          <mxGeometry width="50" height="50" relative="1" as="geometry">
            <mxPoint x="380" y="440" as="sourcePoint" />
            <mxPoint x="310" y="475" as="targetPoint" />
          </mxGeometry>
        </mxCell>
        <mxCell id="5tzD10YLgb73ClGAMn7X-61" value="" style="endArrow=classic;html=1;rounded=0;exitX=0;exitY=0.5;exitDx=0;exitDy=0;entryX=1;entryY=0.5;entryDx=0;entryDy=0;" edge="1" parent="1" source="5tzD10YLgb73ClGAMn7X-33" target="5tzD10YLgb73ClGAMn7X-37">
          <mxGeometry width="50" height="50" relative="1" as="geometry">
            <mxPoint x="330" y="530" as="sourcePoint" />
            <mxPoint x="260" y="565" as="targetPoint" />
          </mxGeometry>
        </mxCell>
        <mxCell id="5tzD10YLgb73ClGAMn7X-62" value="" style="endArrow=classic;html=1;rounded=0;exitX=0;exitY=0.5;exitDx=0;exitDy=0;entryX=1;entryY=0.5;entryDx=0;entryDy=0;" edge="1" parent="1" source="5tzD10YLgb73ClGAMn7X-11" target="5tzD10YLgb73ClGAMn7X-13">
          <mxGeometry width="50" height="50" relative="1" as="geometry">
            <mxPoint x="820" y="650" as="sourcePoint" />
            <mxPoint x="870" y="600" as="targetPoint" />
          </mxGeometry>
        </mxCell>
        <mxCell id="5tzD10YLgb73ClGAMn7X-63" value="" style="endArrow=classic;html=1;rounded=0;exitX=0;exitY=0.5;exitDx=0;exitDy=0;entryX=1;entryY=0.5;entryDx=0;entryDy=0;" edge="1" parent="1" source="5tzD10YLgb73ClGAMn7X-11" target="5tzD10YLgb73ClGAMn7X-16">
          <mxGeometry width="50" height="50" relative="1" as="geometry">
            <mxPoint x="780" y="830" as="sourcePoint" />
            <mxPoint x="710" y="865" as="targetPoint" />
          </mxGeometry>
        </mxCell>
        <mxCell id="5tzD10YLgb73ClGAMn7X-64" value="" style="endArrow=classic;html=1;rounded=0;exitX=0;exitY=0.5;exitDx=0;exitDy=0;entryX=1;entryY=0.5;entryDx=0;entryDy=0;" edge="1" parent="1" source="5tzD10YLgb73ClGAMn7X-11" target="5tzD10YLgb73ClGAMn7X-17">
          <mxGeometry width="50" height="50" relative="1" as="geometry">
            <mxPoint x="770" y="800" as="sourcePoint" />
            <mxPoint x="700" y="835" as="targetPoint" />
          </mxGeometry>
        </mxCell>
        <mxCell id="5tzD10YLgb73ClGAMn7X-66" value="" style="endArrow=classic;html=1;rounded=0;entryX=0.5;entryY=0;entryDx=0;entryDy=0;exitX=0.5;exitY=1;exitDx=0;exitDy=0;" edge="1" parent="1" source="5tzD10YLgb73ClGAMn7X-11" target="5tzD10YLgb73ClGAMn7X-18">
          <mxGeometry width="50" height="50" relative="1" as="geometry">
            <mxPoint x="1280" y="700" as="sourcePoint" />
            <mxPoint x="870" y="600" as="targetPoint" />
          </mxGeometry>
        </mxCell>
        <mxCell id="5tzD10YLgb73ClGAMn7X-67" value="" style="endArrow=classic;html=1;rounded=0;entryX=0;entryY=0.5;entryDx=0;entryDy=0;exitX=1;exitY=0.5;exitDx=0;exitDy=0;" edge="1" parent="1" source="5tzD10YLgb73ClGAMn7X-11" target="5tzD10YLgb73ClGAMn7X-19">
          <mxGeometry width="50" height="50" relative="1" as="geometry">
            <mxPoint x="950" y="860" as="sourcePoint" />
            <mxPoint x="950" y="920" as="targetPoint" />
          </mxGeometry>
        </mxCell>
        <mxCell id="5tzD10YLgb73ClGAMn7X-68" value="" style="endArrow=classic;html=1;rounded=0;entryX=0;entryY=0.75;entryDx=0;entryDy=0;exitX=1;exitY=0.5;exitDx=0;exitDy=0;" edge="1" parent="1" source="5tzD10YLgb73ClGAMn7X-11" target="5tzD10YLgb73ClGAMn7X-15">
          <mxGeometry width="50" height="50" relative="1" as="geometry">
            <mxPoint x="970" y="810" as="sourcePoint" />
            <mxPoint x="970" y="870" as="targetPoint" />
          </mxGeometry>
        </mxCell>
        <mxCell id="5tzD10YLgb73ClGAMn7X-69" value="" style="endArrow=classic;html=1;rounded=0;entryX=0;entryY=0.5;entryDx=0;entryDy=0;exitX=1;exitY=0.5;exitDx=0;exitDy=0;" edge="1" parent="1" source="5tzD10YLgb73ClGAMn7X-11" target="5tzD10YLgb73ClGAMn7X-14">
          <mxGeometry width="50" height="50" relative="1" as="geometry">
            <mxPoint x="960" y="800" as="sourcePoint" />
            <mxPoint x="960" y="860" as="targetPoint" />
          </mxGeometry>
        </mxCell>
        <mxCell id="5tzD10YLgb73ClGAMn7X-70" value="" style="endArrow=classic;html=1;rounded=0;exitX=0.5;exitY=1;exitDx=0;exitDy=0;" edge="1" parent="1" source="5tzD10YLgb73ClGAMn7X-18">
          <mxGeometry width="50" height="50" relative="1" as="geometry">
            <mxPoint x="850" y="1000" as="sourcePoint" />
            <mxPoint x="810" y="1020" as="targetPoint" />
          </mxGeometry>
        </mxCell>
        <mxCell id="5tzD10YLgb73ClGAMn7X-71" value="" style="endArrow=classic;html=1;rounded=0;exitX=0.5;exitY=1;exitDx=0;exitDy=0;" edge="1" parent="1" source="5tzD10YLgb73ClGAMn7X-18">
          <mxGeometry width="50" height="50" relative="1" as="geometry">
            <mxPoint x="930" y="990" as="sourcePoint" />
            <mxPoint x="890" y="1020" as="targetPoint" />
          </mxGeometry>
        </mxCell>
        <mxCell id="5tzD10YLgb73ClGAMn7X-72" value="" style="endArrow=classic;html=1;rounded=0;entryX=0;entryY=0.333;entryDx=0;entryDy=0;exitX=0.5;exitY=1;exitDx=0;exitDy=0;entryPerimeter=0;" edge="1" parent="1" source="5tzD10YLgb73ClGAMn7X-18" target="5tzD10YLgb73ClGAMn7X-24">
          <mxGeometry width="50" height="50" relative="1" as="geometry">
            <mxPoint x="900" y="960" as="sourcePoint" />
            <mxPoint x="850" y="1040" as="targetPoint" />
          </mxGeometry>
        </mxCell>
        <mxCell id="5tzD10YLgb73ClGAMn7X-73" value="" style="endArrow=classic;html=1;rounded=0;entryX=1;entryY=0.5;entryDx=0;entryDy=0;exitX=0.5;exitY=1;exitDx=0;exitDy=0;" edge="1" parent="1" source="5tzD10YLgb73ClGAMn7X-18" target="5tzD10YLgb73ClGAMn7X-27">
          <mxGeometry width="50" height="50" relative="1" as="geometry">
            <mxPoint x="850" y="970" as="sourcePoint" />
            <mxPoint x="800" y="1050" as="targetPoint" />
          </mxGeometry>
        </mxCell>
        <mxCell id="5tzD10YLgb73ClGAMn7X-74" value="" style="endArrow=classic;html=1;rounded=0;entryX=1;entryY=0.5;entryDx=0;entryDy=0;" edge="1" parent="1" target="5tzD10YLgb73ClGAMn7X-22">
          <mxGeometry width="50" height="50" relative="1" as="geometry">
            <mxPoint x="810" y="945" as="sourcePoint" />
            <mxPoint x="760" y="1020" as="targetPoint" />
          </mxGeometry>
        </mxCell>
        <mxCell id="5tzD10YLgb73ClGAMn7X-75" value="" style="endArrow=classic;html=1;rounded=0;entryX=0;entryY=0.5;entryDx=0;entryDy=0;exitX=1;exitY=0.5;exitDx=0;exitDy=0;" edge="1" parent="1" source="5tzD10YLgb73ClGAMn7X-18" target="5tzD10YLgb73ClGAMn7X-23">
          <mxGeometry width="50" height="50" relative="1" as="geometry">
            <mxPoint x="1440" y="930" as="sourcePoint" />
            <mxPoint x="1390" y="1010" as="targetPoint" />
          </mxGeometry>
        </mxCell>
        <mxCell id="5tzD10YLgb73ClGAMn7X-77" value="" style="endArrow=classic;html=1;rounded=0;" edge="1" parent="1">
          <mxGeometry width="50" height="50" relative="1" as="geometry">
            <mxPoint x="850" y="960" as="sourcePoint" />
            <mxPoint x="850" y="1060" as="targetPoint" />
          </mxGeometry>
        </mxCell>
        <mxCell id="5tzD10YLgb73ClGAMn7X-78" value="&lt;span style=&quot;font-size: 10px;&quot;&gt;&lt;b&gt;Data Type Casting&lt;/b&gt;&lt;/span&gt;" style="rounded=1;whiteSpace=wrap;html=1;fillColor=none;" vertex="1" parent="1">
          <mxGeometry x="810" y="1060" width="80" height="30" as="geometry" />
        </mxCell>
        <mxCell id="5tzD10YLgb73ClGAMn7X-79" value="" style="endArrow=classic;html=1;rounded=0;entryX=0.5;entryY=1;entryDx=0;entryDy=0;exitX=0;exitY=0;exitDx=0;exitDy=0;" edge="1" parent="1" source="5tzD10YLgb73ClGAMn7X-7" target="5tzD10YLgb73ClGAMn7X-43">
          <mxGeometry width="50" height="50" relative="1" as="geometry">
            <mxPoint x="626" y="300" as="sourcePoint" />
            <mxPoint x="290" y="390" as="targetPoint" />
          </mxGeometry>
        </mxCell>
        <mxCell id="5tzD10YLgb73ClGAMn7X-80" value="" style="endArrow=classic;html=1;rounded=0;entryX=0.5;entryY=0;entryDx=0;entryDy=0;exitX=0;exitY=0;exitDx=0;exitDy=0;" edge="1" parent="1" source="5tzD10YLgb73ClGAMn7X-7" target="5tzD10YLgb73ClGAMn7X-33">
          <mxGeometry width="50" height="50" relative="1" as="geometry">
            <mxPoint x="590" y="330" as="sourcePoint" />
            <mxPoint x="290" y="390" as="targetPoint" />
          </mxGeometry>
        </mxCell>
        <mxCell id="5tzD10YLgb73ClGAMn7X-81" value="" style="endArrow=classic;html=1;rounded=0;exitX=0;exitY=0;exitDx=0;exitDy=0;entryX=1;entryY=0.5;entryDx=0;entryDy=0;" edge="1" parent="1" source="5tzD10YLgb73ClGAMn7X-7" target="5tzD10YLgb73ClGAMn7X-32">
          <mxGeometry width="50" height="50" relative="1" as="geometry">
            <mxPoint x="240" y="440" as="sourcePoint" />
            <mxPoint x="290" y="390" as="targetPoint" />
          </mxGeometry>
        </mxCell>
        <mxCell id="5tzD10YLgb73ClGAMn7X-82" value="&lt;font style=&quot;font-size: 17px;&quot; face=&quot;Verdana&quot;&gt;&lt;b&gt;Processing&lt;/b&gt;&lt;/font&gt;&lt;div&gt;&lt;font style=&quot;font-size: 17px;&quot; face=&quot;Verdana&quot;&gt;&lt;b&gt;Type&lt;/b&gt;&lt;/font&gt;&lt;/div&gt;" style="rounded=1;whiteSpace=wrap;html=1;fillColor=none;" vertex="1" parent="1">
          <mxGeometry x="1070" y="190" width="120" height="60" as="geometry" />
        </mxCell>
        <mxCell id="5tzD10YLgb73ClGAMn7X-83" value="&lt;font style=&quot;font-size: 17px;&quot; face=&quot;Verdana&quot;&gt;&lt;b style=&quot;&quot;&gt;Load Method&lt;/b&gt;&lt;/font&gt;" style="rounded=1;whiteSpace=wrap;html=1;fillColor=none;" vertex="1" parent="1">
          <mxGeometry x="1215" y="290" width="120" height="60" as="geometry" />
        </mxCell>
        <mxCell id="5tzD10YLgb73ClGAMn7X-84" value="&lt;font style=&quot;font-size: 17px;&quot; face=&quot;Verdana&quot;&gt;&lt;b style=&quot;&quot;&gt;Slowly Changing Dimensions (SCD)&lt;/b&gt;&lt;/font&gt;" style="rounded=1;whiteSpace=wrap;html=1;fillColor=none;" vertex="1" parent="1">
          <mxGeometry x="990" y="500" width="225" height="60" as="geometry" />
        </mxCell>
        <mxCell id="5tzD10YLgb73ClGAMn7X-85" value="&lt;span style=&quot;font-size: 10px;&quot;&gt;&lt;b&gt;Stream Processing&lt;/b&gt;&lt;/span&gt;" style="rounded=1;whiteSpace=wrap;html=1;fillColor=none;" vertex="1" parent="1">
          <mxGeometry x="1160" y="110" width="80" height="30" as="geometry" />
        </mxCell>
        <mxCell id="5tzD10YLgb73ClGAMn7X-86" value="&lt;span style=&quot;font-size: 10px;&quot;&gt;&lt;b&gt;Batch Processing&lt;/b&gt;&lt;/span&gt;" style="rounded=1;whiteSpace=wrap;html=1;fillColor=none;" vertex="1" parent="1">
          <mxGeometry x="1000" y="110" width="80" height="30" as="geometry" />
        </mxCell>
        <mxCell id="5tzD10YLgb73ClGAMn7X-88" value="&lt;font style=&quot;font-size: 17px;&quot; face=&quot;Verdana&quot;&gt;&lt;b&gt;Full&amp;nbsp;&lt;/b&gt;&lt;/font&gt;&lt;div&gt;&lt;font style=&quot;font-size: 17px;&quot; face=&quot;Verdana&quot;&gt;&lt;b&gt;Load&lt;/b&gt;&lt;/font&gt;&lt;/div&gt;" style="rounded=1;whiteSpace=wrap;html=1;fillColor=none;" vertex="1" parent="1">
          <mxGeometry x="1390" y="220" width="120" height="60" as="geometry" />
        </mxCell>
        <mxCell id="5tzD10YLgb73ClGAMn7X-89" value="&lt;font style=&quot;font-size: 17px;&quot; face=&quot;Verdana&quot;&gt;&lt;b style=&quot;&quot;&gt;Incremental Load&lt;/b&gt;&lt;/font&gt;" style="rounded=1;whiteSpace=wrap;html=1;fillColor=none;" vertex="1" parent="1">
          <mxGeometry x="1390" y="350" width="130" height="60" as="geometry" />
        </mxCell>
        <mxCell id="5tzD10YLgb73ClGAMn7X-90" value="&lt;span style=&quot;font-size: 10px;&quot;&gt;&lt;b&gt;Truncate &amp;amp; insert&lt;/b&gt;&lt;/span&gt;" style="rounded=1;whiteSpace=wrap;html=1;fillColor=none;" vertex="1" parent="1">
          <mxGeometry x="1590" y="170" width="100" height="30" as="geometry" />
        </mxCell>
        <mxCell id="5tzD10YLgb73ClGAMn7X-91" value="&lt;span style=&quot;font-size: 10px;&quot;&gt;&lt;b&gt;Upsert&lt;/b&gt;&lt;/span&gt;" style="rounded=1;whiteSpace=wrap;html=1;fillColor=none;" vertex="1" parent="1">
          <mxGeometry x="1590" y="210" width="100" height="30" as="geometry" />
        </mxCell>
        <mxCell id="5tzD10YLgb73ClGAMn7X-92" value="&lt;span style=&quot;font-size: 10px;&quot;&gt;&lt;b&gt;Drop, Create, Insert&lt;/b&gt;&lt;/span&gt;" style="rounded=1;whiteSpace=wrap;html=1;fillColor=none;" vertex="1" parent="1">
          <mxGeometry x="1590" y="250" width="100" height="30" as="geometry" />
        </mxCell>
        <mxCell id="5tzD10YLgb73ClGAMn7X-94" value="&lt;span style=&quot;font-size: 10px;&quot;&gt;&lt;b&gt;Upsert&lt;/b&gt;&lt;/span&gt;" style="rounded=1;whiteSpace=wrap;html=1;fillColor=none;" vertex="1" parent="1">
          <mxGeometry x="1600" y="340" width="80" height="30" as="geometry" />
        </mxCell>
        <mxCell id="5tzD10YLgb73ClGAMn7X-95" value="&lt;span style=&quot;font-size: 10px;&quot;&gt;&lt;b&gt;Append&lt;/b&gt;&lt;/span&gt;" style="rounded=1;whiteSpace=wrap;html=1;fillColor=none;" vertex="1" parent="1">
          <mxGeometry x="1600" y="380" width="80" height="30" as="geometry" />
        </mxCell>
        <mxCell id="5tzD10YLgb73ClGAMn7X-96" value="&lt;span style=&quot;font-size: 10px;&quot;&gt;&lt;b&gt;Merge&lt;/b&gt;&lt;/span&gt;" style="rounded=1;whiteSpace=wrap;html=1;fillColor=none;" vertex="1" parent="1">
          <mxGeometry x="1600" y="420" width="80" height="30" as="geometry" />
        </mxCell>
        <mxCell id="5tzD10YLgb73ClGAMn7X-100" value="&lt;span style=&quot;font-size: 10px;&quot;&gt;&lt;b&gt;SCD_0&lt;/b&gt;&lt;/span&gt;&lt;div&gt;&lt;span style=&quot;font-size: 10px;&quot;&gt;&lt;b&gt;No Horizontal&lt;/b&gt;&lt;/span&gt;&lt;/div&gt;" style="rounded=1;whiteSpace=wrap;html=1;fillColor=none;" vertex="1" parent="1">
          <mxGeometry x="1290" y="460" width="120" height="30" as="geometry" />
        </mxCell>
        <mxCell id="5tzD10YLgb73ClGAMn7X-101" value="&lt;span style=&quot;font-size: 10px;&quot;&gt;&lt;b&gt;SCD_1&lt;/b&gt;&lt;/span&gt;&lt;div&gt;&lt;span style=&quot;font-size: 10px;&quot;&gt;&lt;b&gt;Overwrite&lt;/b&gt;&lt;/span&gt;&lt;/div&gt;" style="rounded=1;whiteSpace=wrap;html=1;fillColor=none;" vertex="1" parent="1">
          <mxGeometry x="1290" y="515" width="120" height="30" as="geometry" />
        </mxCell>
        <mxCell id="5tzD10YLgb73ClGAMn7X-102" value="&lt;span style=&quot;font-size: 10px;&quot;&gt;&lt;b&gt;SCD_2&lt;/b&gt;&lt;/span&gt;&lt;div&gt;&lt;span style=&quot;font-size: 10px;&quot;&gt;&lt;b&gt;Horizontal&lt;/b&gt;&lt;/span&gt;&lt;/div&gt;" style="rounded=1;whiteSpace=wrap;html=1;fillColor=none;" vertex="1" parent="1">
          <mxGeometry x="1290" y="570" width="120" height="30" as="geometry" />
        </mxCell>
        <mxCell id="5tzD10YLgb73ClGAMn7X-103" value="&lt;font style=&quot;font-size: 10px;&quot;&gt;&lt;b&gt;SCD_3&lt;/b&gt;&lt;/font&gt;&lt;div&gt;&lt;font style=&quot;font-size: 10px;&quot;&gt;&lt;b&gt;Store history&lt;/b&gt;&lt;/font&gt;&lt;/div&gt;" style="rounded=1;whiteSpace=wrap;html=1;fillColor=none;" vertex="1" parent="1">
          <mxGeometry x="1290" y="620" width="120" height="30" as="geometry" />
        </mxCell>
        <mxCell id="5tzD10YLgb73ClGAMn7X-104" value="" style="endArrow=classic;html=1;rounded=0;entryX=0.5;entryY=1;entryDx=0;entryDy=0;" edge="1" parent="1" source="5tzD10YLgb73ClGAMn7X-6" target="5tzD10YLgb73ClGAMn7X-82">
          <mxGeometry width="50" height="50" relative="1" as="geometry">
            <mxPoint x="980" y="370" as="sourcePoint" />
            <mxPoint x="1030" y="320" as="targetPoint" />
          </mxGeometry>
        </mxCell>
        <mxCell id="5tzD10YLgb73ClGAMn7X-106" value="" style="endArrow=classic;html=1;rounded=0;entryX=0;entryY=0.5;entryDx=0;entryDy=0;exitX=0.968;exitY=0.355;exitDx=0;exitDy=0;exitPerimeter=0;" edge="1" parent="1" source="5tzD10YLgb73ClGAMn7X-6" target="5tzD10YLgb73ClGAMn7X-83">
          <mxGeometry width="50" height="50" relative="1" as="geometry">
            <mxPoint x="1120" y="340" as="sourcePoint" />
            <mxPoint x="1030" y="320" as="targetPoint" />
          </mxGeometry>
        </mxCell>
        <mxCell id="5tzD10YLgb73ClGAMn7X-109" value="" style="endArrow=classic;html=1;rounded=0;exitX=0.629;exitY=0.966;exitDx=0;exitDy=0;exitPerimeter=0;" edge="1" parent="1" source="5tzD10YLgb73ClGAMn7X-6">
          <mxGeometry width="50" height="50" relative="1" as="geometry">
            <mxPoint x="1086" y="430" as="sourcePoint" />
            <mxPoint x="1089" y="500" as="targetPoint" />
          </mxGeometry>
        </mxCell>
        <mxCell id="5tzD10YLgb73ClGAMn7X-110" value="" style="endArrow=classic;html=1;rounded=0;entryX=0;entryY=0.5;entryDx=0;entryDy=0;exitX=1;exitY=0.5;exitDx=0;exitDy=0;" edge="1" parent="1" source="5tzD10YLgb73ClGAMn7X-83" target="5tzD10YLgb73ClGAMn7X-89">
          <mxGeometry width="50" height="50" relative="1" as="geometry">
            <mxPoint x="1350" y="240" as="sourcePoint" />
            <mxPoint x="1354" y="323" as="targetPoint" />
          </mxGeometry>
        </mxCell>
        <mxCell id="5tzD10YLgb73ClGAMn7X-111" value="" style="endArrow=classic;html=1;rounded=0;entryX=0;entryY=0.5;entryDx=0;entryDy=0;exitX=1;exitY=0.5;exitDx=0;exitDy=0;" edge="1" parent="1" source="5tzD10YLgb73ClGAMn7X-83" target="5tzD10YLgb73ClGAMn7X-88">
          <mxGeometry width="50" height="50" relative="1" as="geometry">
            <mxPoint x="1360" y="250" as="sourcePoint" />
            <mxPoint x="1415" y="310" as="targetPoint" />
          </mxGeometry>
        </mxCell>
        <mxCell id="5tzD10YLgb73ClGAMn7X-112" value="" style="endArrow=classic;html=1;rounded=0;entryX=0;entryY=0.75;entryDx=0;entryDy=0;exitX=1;exitY=0.5;exitDx=0;exitDy=0;" edge="1" parent="1" source="5tzD10YLgb73ClGAMn7X-84" target="5tzD10YLgb73ClGAMn7X-103">
          <mxGeometry width="50" height="50" relative="1" as="geometry">
            <mxPoint x="1240" y="480" as="sourcePoint" />
            <mxPoint x="1295" y="540" as="targetPoint" />
          </mxGeometry>
        </mxCell>
        <mxCell id="5tzD10YLgb73ClGAMn7X-113" value="" style="endArrow=classic;html=1;rounded=0;entryX=0;entryY=0.5;entryDx=0;entryDy=0;exitX=1;exitY=0.5;exitDx=0;exitDy=0;" edge="1" parent="1" source="5tzD10YLgb73ClGAMn7X-84" target="5tzD10YLgb73ClGAMn7X-102">
          <mxGeometry width="50" height="50" relative="1" as="geometry">
            <mxPoint x="1240" y="480" as="sourcePoint" />
            <mxPoint x="1295" y="540" as="targetPoint" />
          </mxGeometry>
        </mxCell>
        <mxCell id="5tzD10YLgb73ClGAMn7X-114" value="" style="endArrow=classic;html=1;rounded=0;exitX=1;exitY=0.5;exitDx=0;exitDy=0;" edge="1" parent="1" source="5tzD10YLgb73ClGAMn7X-84">
          <mxGeometry width="50" height="50" relative="1" as="geometry">
            <mxPoint x="1240" y="480" as="sourcePoint" />
            <mxPoint x="1290" y="530" as="targetPoint" />
          </mxGeometry>
        </mxCell>
        <mxCell id="5tzD10YLgb73ClGAMn7X-115" value="" style="endArrow=classic;html=1;rounded=0;entryX=0;entryY=0.5;entryDx=0;entryDy=0;exitX=1;exitY=0.5;exitDx=0;exitDy=0;" edge="1" parent="1" source="5tzD10YLgb73ClGAMn7X-84" target="5tzD10YLgb73ClGAMn7X-100">
          <mxGeometry width="50" height="50" relative="1" as="geometry">
            <mxPoint x="1240" y="480" as="sourcePoint" />
            <mxPoint x="1295" y="540" as="targetPoint" />
          </mxGeometry>
        </mxCell>
        <mxCell id="5tzD10YLgb73ClGAMn7X-116" value="" style="endArrow=classic;html=1;rounded=0;entryX=0;entryY=0.5;entryDx=0;entryDy=0;" edge="1" parent="1" target="5tzD10YLgb73ClGAMn7X-92">
          <mxGeometry width="50" height="50" relative="1" as="geometry">
            <mxPoint x="1510" y="250" as="sourcePoint" />
            <mxPoint x="1595" y="260" as="targetPoint" />
          </mxGeometry>
        </mxCell>
        <mxCell id="5tzD10YLgb73ClGAMn7X-117" value="" style="endArrow=classic;html=1;rounded=0;entryX=0;entryY=0.5;entryDx=0;entryDy=0;exitX=1;exitY=0.5;exitDx=0;exitDy=0;" edge="1" parent="1" source="5tzD10YLgb73ClGAMn7X-88" target="5tzD10YLgb73ClGAMn7X-91">
          <mxGeometry width="50" height="50" relative="1" as="geometry">
            <mxPoint x="1540" y="200" as="sourcePoint" />
            <mxPoint x="1595" y="260" as="targetPoint" />
          </mxGeometry>
        </mxCell>
        <mxCell id="5tzD10YLgb73ClGAMn7X-118" value="" style="endArrow=classic;html=1;rounded=0;exitX=1;exitY=0.5;exitDx=0;exitDy=0;entryX=0;entryY=0.25;entryDx=0;entryDy=0;" edge="1" parent="1" source="5tzD10YLgb73ClGAMn7X-88" target="5tzD10YLgb73ClGAMn7X-90">
          <mxGeometry width="50" height="50" relative="1" as="geometry">
            <mxPoint x="1540" y="200" as="sourcePoint" />
            <mxPoint x="1590" y="265" as="targetPoint" />
          </mxGeometry>
        </mxCell>
        <mxCell id="5tzD10YLgb73ClGAMn7X-120" value="" style="endArrow=classic;html=1;rounded=0;entryX=0;entryY=0.5;entryDx=0;entryDy=0;exitX=1;exitY=0.75;exitDx=0;exitDy=0;" edge="1" parent="1" source="5tzD10YLgb73ClGAMn7X-89" target="5tzD10YLgb73ClGAMn7X-95">
          <mxGeometry width="50" height="50" relative="1" as="geometry">
            <mxPoint x="1540" y="380" as="sourcePoint" />
            <mxPoint x="1595" y="440" as="targetPoint" />
          </mxGeometry>
        </mxCell>
        <mxCell id="5tzD10YLgb73ClGAMn7X-121" value="" style="endArrow=classic;html=1;rounded=0;entryX=0;entryY=0.75;entryDx=0;entryDy=0;exitX=1;exitY=0.75;exitDx=0;exitDy=0;" edge="1" parent="1" source="5tzD10YLgb73ClGAMn7X-89" target="5tzD10YLgb73ClGAMn7X-94">
          <mxGeometry width="50" height="50" relative="1" as="geometry">
            <mxPoint x="1560" y="360" as="sourcePoint" />
            <mxPoint x="1640" y="360" as="targetPoint" />
          </mxGeometry>
        </mxCell>
        <mxCell id="5tzD10YLgb73ClGAMn7X-122" value="" style="endArrow=classic;html=1;rounded=0;entryX=0;entryY=0.5;entryDx=0;entryDy=0;exitX=1;exitY=0.75;exitDx=0;exitDy=0;" edge="1" parent="1" source="5tzD10YLgb73ClGAMn7X-89" target="5tzD10YLgb73ClGAMn7X-96">
          <mxGeometry width="50" height="50" relative="1" as="geometry">
            <mxPoint x="1550" y="420" as="sourcePoint" />
            <mxPoint x="1630" y="420" as="targetPoint" />
          </mxGeometry>
        </mxCell>
      </root>
    </mxGraphModel>
  </diagram>
</mxfile>
